# xmcd CD database file
#
# Track frame offsets:
#	150
#	10263
#	23677
#	43737
#	58630
#	76814
#	88710
#	104284
#	121224
#	137911
#	157120
#
# Disc length: 2323 seconds
#
# Revision: 0
# Processed by: cddbd v1.5.2PL0 Copyright (c) Steve Scherf et al.
# Submitted via: CDex 1.70beta2
#
DISCID=8609110b
DTITLE=Mark Wenner and The Bel Airs - Mama Tried
DYEAR=2002
DGENRE=Blues
TTITLE0=If Glen Would Swing
TTITLE1=Walkin' After Midnight
TTITLE2=Try It Baby
TTITLE3=Big River
TTITLE4=She Belongs to Me
TTITLE5=Mama Tried
TTITLE6=Howie's Hammer
TTITLE7=Baby (You've Got What It Takes)
TTITLE8=A Rockin' Good Way (To Mess Around and Fall in Love)
TTITLE9=Let's Get Together
TTITLE10=Cleo's Mood
EXTD=YEAR: 2002
EXTT0=
EXTT1=
EXTT2=
EXTT3=
EXTT4=
EXTT5=
EXTT6=
EXTT7=
EXTT8=
EXTT9=
EXTT10=
PLAYORDER=
